<svg id="Layer_1" data-name="Layer 1" xmlns="http://www.w3.org/2000/svg" viewBox="0 0 359.5 433.82"><defs><style>.cls-1{fill:#9098bd;}.cls-2{fill:#f73c57;}.cls-3{fill:#8664ad;fill-opacity:0.5;stroke:#00367c;}.cls-4{fill:none;stroke:#001e4d;stroke-width:3px;}.cls-5{fill:#001e4d;}</style></defs><path class="cls-1" d="M91.35,50.05h281a40,40,0,0,1,40,40v360h-281a40,40,0,0,1-40-40Z" transform="translate(-70.33 -32.99)"/><path class="cls-2" d="M70.33,41.24a8,8,0,0,1,8-8L155,33a8,8,0,0,1,5.7,13.64L84.12,123.57a8,8,0,0,1-13.67-5.63Z" transform="translate(-70.33 -32.99)"/><path class="cls-2" d="M429.82,458.35a8,8,0,0,1-7.95,8l-76.7.43a8,8,0,0,1-5.73-13.63l76.39-77.13a8,8,0,0,1,13.69,5.6Z" transform="translate(-70.33 -32.99)"/><rect class="cls-3" x="307.85" y="85.55" width="44" height="44" rx="4.5" transform="translate(80.04 371.46) rotate(-76.91)"/><line class="cls-4" x1="252.22" y1="69.16" x2="261.22" y2="81.16"/><line class="cls-4" x1="260.12" y1="81.86" x2="296.12" y2="54.86"/><path class="cls-5" d="M142.79,94.17q6.12,0,9.38,3.44t3.26,10.16a18,18,0,0,1-1.48,7.6,10.91,10.91,0,0,1-4.32,4.94,12.93,12.93,0,0,1-6.88,1.74h-7.16V94.17Zm-.16,23.48a7,7,0,0,0,4.46-1.36,7.44,7.44,0,0,0,2.42-3.54,15.59,15.59,0,0,0,.72-4.86,12.45,12.45,0,0,0-1.8-7q-1.78-2.75-5.8-2.74h-1.88v19.48Zm24.9,4.8a9.53,9.53,0,0,1-5-1.24,8,8,0,0,1-3.14-3.56,13.29,13.29,0,0,1-1.08-5.6,13,13,0,0,1,1.1-5.6,7.92,7.92,0,0,1,3.22-3.56,9.76,9.76,0,0,1,5-1.24,9,9,0,0,1,4.92,1.28,7.9,7.9,0,0,1,3.08,3.6,13.56,13.56,0,0,1,1,5.52,13.2,13.2,0,0,1-1.08,5.52,8.22,8.22,0,0,1-3.16,3.62A9.35,9.35,0,0,1,167.53,122.45Zm.08-4a3.09,3.09,0,0,0,2.82-1.62,9.43,9.43,0,0,0,1-4.78,9.46,9.46,0,0,0-1-4.8,3.07,3.07,0,0,0-2.82-1.64,3.28,3.28,0,0,0-3,1.54,9.2,9.2,0,0,0-1,4.9,9.12,9.12,0,0,0,1,4.88A3.31,3.31,0,0,0,167.61,118.45Zm13.59-12a59.27,59.27,0,0,0,.86-5.88,58,58,0,0,0,.38-6.44h4.92a29.52,29.52,0,0,1-.62,6q-.62,3.06-1.54,6.36Zm17.28,15.92a11.91,11.91,0,0,1-4.5-.7,6.44,6.44,0,0,1-2.3-1.54l1.48-3.8a8.42,8.42,0,0,0,5.44,2.12,3,3,0,0,0,1.92-.52,1.66,1.66,0,0,0,.64-1.32,1.9,1.9,0,0,0-1.1-1.54,21.36,21.36,0,0,0-3.22-1.66,16.64,16.64,0,0,1-2.4-1.26,6.41,6.41,0,0,1-1.78-1.78,5,5,0,0,1-.74-2.76,5.33,5.33,0,0,1,3.48-5.2,10.48,10.48,0,0,1,4.08-.72,10.26,10.26,0,0,1,2.66.32,9,9,0,0,1,2.14.76,4.69,4.69,0,0,1,1.28.84l-1.36,3.6a8.82,8.82,0,0,0-2.12-1.18,6.06,6.06,0,0,0-2.44-.5,4.1,4.1,0,0,0-2.12.4,1.39,1.39,0,0,0-.6,1.28,1.78,1.78,0,0,0,.88,1.5,16.21,16.21,0,0,0,2.76,1.34,11.61,11.61,0,0,1,4.12,2.52,4.78,4.78,0,0,1,1.44,3.52,6.27,6.27,0,0,1-.8,3.16,5.66,5.66,0,0,1-2.5,2.26A9.63,9.63,0,0,1,198.48,122.41Z" transform="translate(-70.33 -32.99)"/></svg>