<svg id="Layer_1" data-name="Layer 1" xmlns="http://www.w3.org/2000/svg" viewBox="0 0 348.8 439.59"><defs><style>.cls-1{fill:#9098bd;}.cls-2{fill:#f73c57;}.cls-3{fill:#8664ad;fill-opacity:0.5;stroke:#00367c;}.cls-4{fill:none;stroke:#001e4d;stroke-width:3px;}.cls-5{fill:#001e4d;}</style></defs><path class="cls-1" d="M93.58,89.76a40,40,0,0,1,40-40h281v360a40,40,0,0,1-40,40h-281Z" transform="translate(-75.61 -30.11)"/><path class="cls-2" d="M413.63,30.11a8,8,0,0,1,8.25,7.73l2.53,76.66a8,8,0,0,1-13.47,6.1L331.75,46.35A8,8,0,0,1,337,32.52Z" transform="translate(-75.61 -30.11)"/><path class="cls-2" d="M83.44,468.08a8,8,0,0,1-7.83-8.16l1.5-76.69a8,8,0,0,1,13.76-5.38l75.19,78.3a8,8,0,0,1-5.94,13.54Z" transform="translate(-75.61 -30.11)"/><rect class="cls-3" x="136.57" y="87.78" width="44" height="44" rx="4.5" transform="translate(-105.53 38.84) rotate(-22.47)"/><line class="cls-4" x1="61.05" y1="67.99" x2="106.69" y2="89.6"/><line class="cls-4" x1="73.09" y1="102.54" x2="94.73" y2="56.9"/><path class="cls-5" d="M247,90.84q6.12,0,9.38,3.44t3.26,10.16a18,18,0,0,1-1.48,7.6,10.91,10.91,0,0,1-4.32,4.94,12.93,12.93,0,0,1-6.88,1.74h-7.16V90.84Zm-.16,23.48a6.9,6.9,0,0,0,4.46-1.36,7.44,7.44,0,0,0,2.42-3.54,15.59,15.59,0,0,0,.72-4.86,12.48,12.48,0,0,0-1.8-7q-1.78-2.74-5.8-2.74H245v19.48Zm24.9,4.8a9.44,9.44,0,0,1-5-1.24,7.91,7.91,0,0,1-3.14-3.56,13.29,13.29,0,0,1-1.08-5.6,13,13,0,0,1,1.1-5.6,7.92,7.92,0,0,1,3.22-3.56,9.76,9.76,0,0,1,5-1.24,9.05,9.05,0,0,1,4.92,1.28,7.9,7.9,0,0,1,3.08,3.6,13.56,13.56,0,0,1,1,5.52,13.13,13.13,0,0,1-1.08,5.52,8.16,8.16,0,0,1-3.16,3.62A9.35,9.35,0,0,1,271.76,119.12Zm.08-4a3.09,3.09,0,0,0,2.82-1.62,9.4,9.4,0,0,0,1-4.78,9.46,9.46,0,0,0-1-4.8,3.08,3.08,0,0,0-2.82-1.64,3.28,3.28,0,0,0-3,1.54,9.23,9.23,0,0,0-1,4.9,9.1,9.1,0,0,0,1,4.88A3.31,3.31,0,0,0,271.84,115.12Zm24.35-16.8a5.35,5.35,0,0,1,4.48,1.9,8.25,8.25,0,0,1,1.52,5.34v13.16h-5.12V106a4.55,4.55,0,0,0-.72-2.7,2.42,2.42,0,0,0-2.12-1,3.45,3.45,0,0,0-1.76.48,3.59,3.59,0,0,0-1.28,1.34,3.75,3.75,0,0,0-.48,1.9v12.72h-5.12V98.8h4.64l.1,2.62A6.63,6.63,0,0,1,296.19,98.32Zm11.59,4.84q.5-2.41.86-5.88a60.53,60.53,0,0,0,.38-6.44h4.92a30.26,30.26,0,0,1-.62,6q-.63,3.06-1.54,6.36Zm18.4,16.16a6.71,6.71,0,0,1-3.48-.76,4.1,4.1,0,0,1-1.78-2.28,13.2,13.2,0,0,1-.5-4V103h-2.6V98.8h2.8l.28-4.2,4.36-1.88V98.8h4.92V103h-4.92v9.12a4.52,4.52,0,0,0,.46,2.38,1.52,1.52,0,0,0,1.38.7,4.5,4.5,0,0,0,1.78-.42,6.88,6.88,0,0,0,1.62-1l1,4a8,8,0,0,1-2.54,1A11.18,11.18,0,0,1,326.18,119.32Zm14.42-.24a11.72,11.72,0,0,1-4.5-.7,6.31,6.31,0,0,1-2.3-1.54l1.48-3.8a8.42,8.42,0,0,0,5.44,2.12,2.92,2.92,0,0,0,1.92-.52,1.66,1.66,0,0,0,.64-1.32,1.92,1.92,0,0,0-1.1-1.54,22.34,22.34,0,0,0-3.22-1.66,16.64,16.64,0,0,1-2.4-1.26,6.28,6.28,0,0,1-1.78-1.78,5,5,0,0,1-.74-2.76,5.63,5.63,0,0,1,.88-3.14,5.75,5.75,0,0,1,2.6-2.06,10.48,10.48,0,0,1,4.08-.72,10.71,10.71,0,0,1,2.66.32,9,9,0,0,1,2.14.76,4.69,4.69,0,0,1,1.28.84l-1.36,3.6a8.82,8.82,0,0,0-2.12-1.18,6.23,6.23,0,0,0-2.44-.5,4.1,4.1,0,0,0-2.12.4,1.39,1.39,0,0,0-.6,1.28,1.78,1.78,0,0,0,.88,1.5,15.48,15.48,0,0,0,2.76,1.34,11.9,11.9,0,0,1,4.12,2.52,4.78,4.78,0,0,1,1.44,3.52,6.27,6.27,0,0,1-.8,3.16,5.61,5.61,0,0,1-2.5,2.26A9.63,9.63,0,0,1,340.6,119.08Z" transform="translate(-75.61 -30.11)"/></svg>