<?xml version="1.0" standalone="no"?>
<!DOCTYPE svg PUBLIC "-//W3C//DTD SVG 20010904//EN"
 "http://www.w3.org/TR/2001/REC-SVG-20010904/DTD/svg10.dtd">
<svg version="1.0" xmlns="http://www.w3.org/2000/svg"
 width="700.000000pt" height="272.000000pt" viewBox="0 0 700.000000 272.000000"
 preserveAspectRatio="xMidYMid meet">
<metadata>
Created by potrace 1.16, written by Peter Selinger 2001-2019
</metadata>
<g transform="translate(0.000000,272.000000) scale(0.100000,-0.100000)"
fill="#000000" stroke="none">
<path d="M110 1365 l0 -1255 280 0 280 0 0 634 0 634 39 35 c52 47 100 62 201
62 66 0 94 -5 125 -21 52 -27 92 -86 105 -153 6 -32 10 -283 10 -622 l0 -569
280 0 280 0 0 44 0 44 68 -33 c134 -66 205 -80 412 -80 206 0 278 14 410 78
36 18 68 33 73 35 4 2 7 -17 7 -42 l0 -46 280 0 280 0 0 616 0 616 29 37 c61
77 180 116 278 92 56 -15 77 -32 107 -86 21 -39 21 -48 24 -658 l3 -617 279 0
280 0 0 613 0 612 24 36 c33 49 93 87 157 101 106 22 196 -11 234 -87 19 -39
20 -63 23 -658 l3 -617 154 0 155 0 0 855 c0 535 4 855 10 855 16 0 106 -96
134 -145 76 -129 106 -304 87 -503 -8 -75 -11 -176 -7 -247 3 -66 8 -276 12
-467 l5 -348 155 0 154 0 0 69 0 70 70 -43 c77 -48 219 -99 320 -115 105 -17
303 -13 405 8 171 35 345 127 439 232 25 28 46 54 46 58 0 6 -195 239 -234
279 l-22 22 -48 -46 c-126 -121 -355 -167 -519 -104 -97 37 -185 142 -212 252
l-7 28 546 0 546 0 0 133 c-1 253 -28 404 -100 552 -73 151 -175 252 -325 325
-110 53 -188 70 -340 77 -201 9 -360 -25 -497 -106 l-68 -40 0 60 0 59 -280 0
c-233 0 -280 -2 -280 -14 0 -11 -16 -9 -72 11 -90 32 -247 42 -357 23 -110
-18 -220 -77 -308 -165 l-73 -72 -31 48 c-84 132 -226 199 -425 199 -170 0
-309 -52 -428 -162 l-64 -58 -6 62 c-3 35 -7 77 -8 93 l-3 30 -262 3 -263 2 0
-49 0 -49 -62 33 c-35 19 -103 46 -153 61 -83 26 -103 28 -270 28 -145 1 -194
-3 -250 -18 -94 -25 -216 -83 -292 -139 l-62 -46 -52 55 c-94 98 -244 154
-419 154 -159 0 -282 -47 -392 -149 l-58 -53 0 456 0 456 -280 0 -280 0 0
-1255z m2674 312 c89 -89 156 -200 195 -322 45 -139 54 -222 48 -412 -6 -219
-36 -333 -125 -486 -35 -60 -135 -173 -184 -208 l-28 -20 0 760 c0 524 3 761
10 761 6 0 44 -33 84 -73z m2744 -1034 l-3 -368 -65 65 c-80 80 -140 170 -183
275 l-32 80 -3 269 c-3 262 -3 270 22 357 43 149 105 258 205 357 l56 57 3
-362 c1 -199 1 -527 0 -730z m-3893 939 c58 -143 58 -149 62 -775 3 -358 1
-577 -5 -577 -5 0 -41 30 -80 66 -159 147 -240 332 -262 596 -23 278 46 546
185 721 55 69 61 67 100 -31z m672 -131 c71 -36 127 -113 152 -209 21 -76 31
-247 21 -359 -21 -240 -105 -358 -263 -370 -76 -6 -131 8 -186 47 -77 56 -115
147 -132 315 -14 140 0 311 34 407 28 79 111 169 172 186 55 15 156 7 202 -17z
m3880 1 c83 -43 123 -108 131 -214 l5 -68 -272 0 c-218 0 -271 3 -271 13 0 7
7 38 16 68 48 164 137 234 286 225 38 -3 82 -13 105 -24z"/>
<path d="M5145 2586 c-64 -20 -99 -42 -138 -85 -102 -112 -78 -306 48 -389 121 -80 327 -67 428 27 102 94 102 279 0 378 -75 72 -229 104 -338 69z"/>
</g>
</svg>
