<svg xmlns="http://www.w3.org/2000/svg" width="1920" height="1080" viewBox="0 0 1920 1080">
  <defs>
    <style>
      .cls-1 {
        fill: #383838;
        fill-rule: evenodd;
      }
    </style>
  </defs>
  <g id="Artboard_1" data-name="Artboard 1">
    <path id="Color_Fill_1" data-name="Color Fill 1" class="cls-1" d="M424.043,294H341.768V669h82.275V479.547a33.185,33.185,0,0,1,13.55-11.841q8.662-4.269,22.339-4.272a61.98,61.98,0,0,1,15.747,1.831,26.188,26.188,0,0,1,11.841,6.591,30.446,30.446,0,0,1,7.446,12.7q2.563,7.937,2.563,19.9V669h82.52V504.937q0-28.8-6.47-48.828t-18.188-32.47a68.671,68.671,0,0,0-27.954-18.067,109.671,109.671,0,0,0-36.011-5.615q-21,0-37.964,8.789a90.736,90.736,0,0,0-29.419,24.414V294ZM597.949,539.605q0,29.058,8.3,53.589a119.5,119.5,0,0,0,24.536,42.481,112.575,112.575,0,0,0,40.039,28.076q23.8,10.128,54.81,10.132t54.809-10.132a111.4,111.4,0,0,0,39.917-28.076,119.1,119.1,0,0,0,24.292-42.481q8.178-24.535,8.179-53.589v-5.126a166.665,166.665,0,0,0-8.3-53.467,121.7,121.7,0,0,0-24.414-42.725,110.75,110.75,0,0,0-39.917-28.2q-23.8-10.128-55.054-10.132-30.76,0-54.565,10.132a110.75,110.75,0,0,0-39.917,28.2,121.634,121.634,0,0,0-24.414,42.725,166.583,166.583,0,0,0-8.3,53.467v5.126Zm82.276-5.126a163.272,163.272,0,0,1,2.2-27.344,74.44,74.44,0,0,1,7.324-22.583,41.36,41.36,0,0,1,13.794-15.381q8.663-5.733,21.606-5.737,13.185,0,21.973,5.737a42,42,0,0,1,14.038,15.381,70.264,70.264,0,0,1,7.324,22.583,172.967,172.967,0,0,1,2.076,27.344v5.126a166.334,166.334,0,0,1-2.2,27.832,72.832,72.832,0,0,1-7.324,22.461,39.654,39.654,0,0,1-13.794,15.015q-8.668,5.493-21.606,5.493-13.183,0-21.973-5.493A40.233,40.233,0,0,1,689.624,589.9a68.656,68.656,0,0,1-7.324-22.461,175.744,175.744,0,0,1-2.075-27.832v-5.126ZM872.2,404.84V669h82.276V485.162a44.458,44.458,0,0,1,15.014-15.991,38.952,38.952,0,0,1,21.118-5.737,57.24,57.24,0,0,1,13.555,1.464,19.626,19.626,0,0,1,10.01,5.86q4.02,4.394,6.1,12.207t2.07,20.264V669h82.52V488.946a31.075,31.075,0,0,0-.24-3.784,42.8,42.8,0,0,1,14.65-15.991q9.03-5.733,21.73-5.737a51.9,51.9,0,0,1,13.3,1.587,20.763,20.763,0,0,1,10.01,5.859q4.035,4.274,6.23,11.963t2.19,19.9V669h82.52V502.74q0-28.8-6.1-48.462t-17.09-31.738a62.491,62.491,0,0,0-26.12-17.334,100.841,100.841,0,0,0-33.21-5.249q-26.355,0-45.65,10.5a90.247,90.247,0,0,0-31.98,29.3q-9.285-20.994-26.86-30.4t-40.77-9.4q-24.9,0-43.578,9.522a94.632,94.632,0,0,0-31.861,26.367l-2.685-31.006H872.2Zm499.343,0h-82.52V669h82.52V404.84Zm-84.1-52a36.789,36.789,0,0,0,9.4,12.695,43.307,43.307,0,0,0,14.4,8.3,60.217,60.217,0,0,0,37.11,0,43.407,43.407,0,0,0,14.4-8.3,36.789,36.789,0,0,0,9.4-12.695,40.99,40.99,0,0,0,0-32.227,36.836,36.836,0,0,0-9.4-12.695,43.476,43.476,0,0,0-14.4-8.3,60.237,60.237,0,0,0-37.11,0,43.376,43.376,0,0,0-14.4,8.3,36.836,36.836,0,0,0-9.4,12.695A40.99,40.99,0,0,0,1287.44,352.838Zm280.47,317.016a146.34,146.34,0,0,0,29.54-10.5,113.073,113.073,0,0,0,23.07-14.77,96.2,96.2,0,0,0,16.24-17.09l-37.6-44.434a66.5,66.5,0,0,1-27.95,21,90.131,90.131,0,0,1-33.09,6.347q-23.67,0-38.57-12.695T1480.26,562.8h163.58V529.352q0-29.784-8.18-53.711t-23.68-40.772a103.3,103.3,0,0,0-37.84-25.879q-22.35-9.029-50.42-9.033-31.74,0-55.54,10.5a111.969,111.969,0,0,0-39.8,28.809,120.225,120.225,0,0,0-23.92,43.335,177.175,177.175,0,0,0-7.94,53.833v9.277a133.145,133.145,0,0,0,9.16,49.316,120.288,120.288,0,0,0,26.49,40.772q17.325,17.578,42.72,27.832t57.62,10.254A147.769,147.769,0,0,0,1567.91,669.854ZM1553.26,474.3q10.5,10.866,10.01,30.639v6.348h-83.01a109.447,109.447,0,0,1,4.4-19.043,49.353,49.353,0,0,1,7.93-15.137,35.411,35.411,0,0,1,12.58-10.009q7.56-3.663,18.06-3.662Q1542.76,463.434,1553.26,474.3Z"/>
  </g>
</svg>
