<svg xmlns="http://www.w3.org/2000/svg" viewBox="0 0 329.6 350.5"><defs><style>.cls-1{fill:#9098bd;}.cls-2{fill:#6f447a;}.cls-3{fill:#f73c57;}</style></defs><g id="Layer_2" data-name="Layer 2"><path class="cls-1" d="M240.33,422.16a18.1,18.1,0,0,0,10,3l-3.5-5.5a34.33,34.33,0,0,1-1.5-5c-1-4,0-7-.5-12s-2-6-3.5-10.5-5-9.5-7.5-14a156.37,156.37,0,0,0-10-15c-3-4-8.5-18-11.5-25s-6-6.5-7.5-8.5c-1.2-1.6-8.5-4.34-12-5.5-4.33-2-13.4-6.2-15-7-2-1-3.5-3-4.5-4s-3.5-5-5-6.5-1.5-8-1-10,1.5-2.5,2.5-5,6-9.5,7-12,0-2.5,0-3a14.72,14.72,0,0,0-1.5-4.5c-1-2-.5-3,0-5.5a7.66,7.66,0,0,1,3.5-5,7,7,0,0,1,3.5-1v-3a17.11,17.11,0,0,1,1-6.5c1-2.5,1-2,2.5-3s2.5,0,5-.5,3.5-.5,5.5-1,2-2.5,2-5.5-1-2-2-5.5-2-4-2-6.5a7.16,7.16,0,0,1,2.5-5.5,18.44,18.44,0,0,1,7-4c3-1,20-1.5,23-2s5-1.5,9.5-3.5,10.5-10,12.5-13,6.5-13,8.5-15a41,41,0,0,1,8-6c4-2.5,14.5-3.5,18-4.5s4.5-1.5,7.5-2.5,14-1.5,16.5-2.5,5.5-6,5.5-7,5-3.5,6-4,1-2.5,2-5a29.11,29.11,0,0,1,2.5-5.5c1-1.5,3.5-2.5,6-3s4.5.5,7.5,1.5,4,.5,7.5,0,3.5,1.5,7.5,3,14.5-.5,17.5,0,5.5,4,8.5,5,6.5.5,10,1,7.5,4.5,10,5a37.84,37.84,0,0,0,7.5.5c2.5,0,5.5,1,8,1.5s-3.5-7-5-9-9.5-8-12-9.5-6.5-5.5-8.5-7-6-6.5-7-7.5-2-5-3-7-2.5-3.5-4-5.5-3.5-3-5-4.5c-1.2-1.2-2.83-4.84-3.5-6.5l-2.5-3-7-4.5c-.83-.5-2.8-1.7-4-2.5-1.5-1-.5-1.5-1-3.5s-3-4-6-6.5-12-6-20.5-8-11,0-16-1-5.5-3.5-9-3.5-5.5.5-11,2-10-.5-15,0-7.5,2.5-11,3-8.5-1.5-13.5.5-20,5.5-23,6-4.5,0-6.5,0-2.5,1-3.5,1.5l-4,2c-.83.16-3.2.7-6,1.5-3.5,1-5,.5-7,1.5s-2,1.5-3,4-.5,8,0,12-1.5,12-4,15a27.7,27.7,0,0,1-7,6.5c-2.5,1.5-8.5,5.5-14.5,7h0c-6,1.5-6,1.5-13,4.5s-10,12.5-11.5,16c-1.2,2.8-6.17,18.16-8.5,25.5.17-.84-.1-.5-2.5,7.5a19,19,0,0,1-12.5,12.5c-.33.5-2.1,2-6.5,4-5.5,2.5-2.5,2-5.5,3a31.18,31.18,0,0,0-5.5,2.5,128,128,0,0,0-11.5,6c-3,2-2.5,2.5-3,4.5s0,1,0,4.5c0,2.8.33,2.83.5,2.5a25.34,25.34,0,0,0,3,5c2.5,3.5,1,1.5,2.5,3s1,1,1.5,2.5,0,1-.5,2.5-1.5,2-2.5,3.5a6.29,6.29,0,0,1-2,2l-2,2c-1.5,1.5-.5.5-1.5,2a8.45,8.45,0,0,0-1.5,3,9.42,9.42,0,0,0,0,4,7.52,7.52,0,0,0,1.5,3c1,1,1.5,1,1.5,2.5,0,1.2-.33,1.5-.5,1.5-.33,0-1.3.4-2.5,2-1.5,2-.5,1-2,3a6.46,6.46,0,0,0-1.5,3v4.5l1.5,2.5a18.77,18.77,0,0,0,2,2.5,15.86,15.86,0,0,0,3,2.5c1.5,1,1,1,2,2.5a1.74,1.74,0,0,1-.5,2.5l-1.5,2-1.5,2-2,2a12.63,12.63,0,0,0-1.5,3.5,4.87,4.87,0,0,0,0,3,29.41,29.41,0,0,0,1.5,9c1.5,4,2.5,4,4.5,6.5,1.6,2,6.33,4.83,8.5,6a45.82,45.82,0,0,0,8.5,2.5c2.8.4,11.83,1.83,16,2.5l9,.5,7.5,1.5a62.51,62.51,0,0,1,9,3.5c2.67,1.66,8.9,6.4,12.5,12s11.83,14.33,15.5,18c3.33,3,11.8,9.7,19,12.5,9,3.5,14,11.5,15,11.5.8,0,6.67,9.66,9.5,14.5l9,9.5Z" transform="translate(-84.33 -74.66)"/></g><g id="Layer_3" data-name="Layer 3"><path class="cls-2" d="M227.31,397c2.4,2.8,12.33,18.84,17,26.5,1.6,2,5,1.84,6.5,1.5l-2.5-5.5-4-14.5-5.5-8-16-24.5-10.5-20-19-20.5-16.5-8-18-15,9.5-49.5,49-60.5,91-53.5,51-17.5a60,60,0,0,0-4-7.5c-2-3-2.5-3.5-5-4.5s-4.5-1-6.5-1.5-5.5-3.5-7.5-5.5a22.2,22.2,0,0,1-4-5.5c-1.5-2.5-2.5-2-5-3.5s-3.5-4-5.5-6-1-1-8-2-1.5-1.5-5.5-2.5-6.5,1-10,1-5-2-9-1-3,3.5-7,3.5-9-2.5-13-2.5a19.15,19.15,0,0,0-9.5,2.5c-3,1.5-2.5,0-5.5,0s-3.5,2-5,3c-1.2.8-2.17,4-2.5,5.5a30.11,30.11,0,0,0-3,5.5c-1.2,2.8-1.5,7.84-1.5,10a58.34,58.34,0,0,0-3.5,7.5,19,19,0,0,1-7,9.5c-3.5,2.5-5.5,2-9,2.5s-7.5,1.5-10.5,1.5-9.5,2-12,3.5-9,10.5-11,12.5-5.5,9.5-7,13-5,15.5-5.5,17a65.5,65.5,0,0,1-4.5,7.5,23.23,23.23,0,0,1-4,4.5,65.07,65.07,0,0,1-6,3,58.07,58.07,0,0,1-8,3c-1.5.5-11,3-13.5,4-2,.8-7.17,2.67-9.5,3.5l-5,2.5a18.53,18.53,0,0,0-4,4.5c-1,2-1,3.5,0,6.5a11.74,11.74,0,0,0,2,4l4,5,3,3.5a4.87,4.87,0,0,1-1.5,5c-2.5,2.5-4.5,3-7.5,5.5s-1,1.5-2.5,4-1,3.5,0,6.5,1.5,2.5,1.5,5.5-3.5,1.5-5,3.5-2,2.5-2,5,0,3.5,2,5.5a13,13,0,0,1,3.5,5.5c.8,2,.33,2.5,0,2.5a8.26,8.26,0,0,1-2,4.5c-2,2.5-2,2.5-3.5,4.5s-1,2.5-2,3.5-1,2-1,5.5.5,3.5,1,7,4,7.5,5.5,9.5c1.2,1.6,4.83,4.34,6.5,5.5a49.24,49.24,0,0,0,9.5,4c4,1,15.5,3.5,18.5,4s13.5,5,16.5,6.5,3,2.5,7,5.5,6.5,8,9.5,12a72.72,72.72,0,0,0,8,9c3,3,16.5,13,20,16S224.31,393.45,227.31,397Z" transform="translate(-84.33 -74.66)"/></g><g id="Layer_4" data-name="Layer 4"><path class="cls-3" d="M249.93,423.66c-.66-2.17-2.5-7.2-4.5-10-2.5-3.5-3.5-4-4.5-7s-1-4-3.5-7.5a135,135,0,0,0-13-15,139.46,139.46,0,0,1-14-16,79.53,79.53,0,0,1-9.5-18c-1.5-4-3.5-9-5-11s-1-3-3.5-5-2-2-7-3.5-15-5.5-18.5-6-14-3.5-17.5-5.5-8.5-4.5-10.5-9.5-3-7.5-2.5-10.5a19,19,0,0,1,2.5-7.5c1.5-2.5,4.5-3.5,6-7s3-3.5,1.5-8.5-3-6-1.5-9,3-4,4.5-4.5a5.32,5.32,0,0,1,3,0c-.19-.11-.59-.91-1-3.48-.5-3.5-1-3.5,0-7.5,1-5,2.5-5,5-7s4.5-1.5,5.5-5,2-2.5,1-6.5-3.5-6-3.5-9-.5-4.5,1.5-6.5,1.5-3,6-4.5,20.5-7,24-8,2.5,0,7.5-3,7-3.5,9.5-9,3-9,5.5-14.5,3.5-8,8-12.5,4.5-5.5,10.5-8.5,7-4.5,11.5-5,7,0,12.5-1.5,8-3,12.5-5.5,11-7,13-9,2.5.5,4-5.5-.5-6.5,3-11.5,2-5.5,6-6.5,4.5,2,8.5,0,3-4.5,7.5-3,2,3,9.5,3,7.5-2,11.5-2,4.5,3,7.5,3a4.4,4.4,0,0,1,4,2,4.85,4.85,0,0,0,3.5,5c4,1.5,6-1,9,2s2.5,3,7,5.5,7,2.5,10.5,4,8,4.5,9.5,7,3,2,6.5,4,7,3,8.5,6,4.5,6,7,7a17.24,17.24,0,0,1,6.5,5,5.28,5.28,0,0,0,2.39,1.79l.61.21a4.47,4.47,0,0,1-.61-.21l-.89-.29-2-.5-3-.5h-3l-5-.5a9.42,9.42,0,0,1-3-1,34.09,34.09,0,0,0-3.5-2.5,12.83,12.83,0,0,0-4-1.5c-2.16-.17-6.7-.5-7.5-.5a14.47,14.47,0,0,1-3.5-1l-3-2-2-1.5a6.87,6.87,0,0,0-3.5-1c-1.6,0-6.33.33-8.5.5h-5a8.35,8.35,0,0,1-3-.5,16.65,16.65,0,0,1-3-1.5,6.5,6.5,0,0,0-1.5-1h-8c-4.5,0-2-1.5-6-1.5s-5,0-8.5,1.5c-2.8,1.2-4.5,7.83-5,11a39.29,39.29,0,0,0-6,3.5c-1,1-2.5,6.5-5,8s-13.5,1.5-16,2.5a72.48,72.48,0,0,1-9.5,3c-4,1-9.5,1.5-13.5,3s-9.5,4-11.5,6.5-1.5,1.5-3.5,5.5-6.5,14-10,17.5-8,7-11.5,8a92.84,92.84,0,0,1-17,2.5c-4,0-8.5,0-11.5,1a18.83,18.83,0,0,0-7.5,4.5c-2,2-2.5,2.5-2,5s.5,4,2,7,5,8,1.5,9.5-4,1-6.5,1.5a14.54,14.54,0,0,1-5,0l-3,1.5-1.5,3.5a65.13,65.13,0,0,0-.14,7.79c.21,0,.3.05.14.21s-.11,0-.14-.21a10.37,10.37,0,0,0-5.86,3.21,14.83,14.83,0,0,0-2,5.5,4.51,4.51,0,0,0,.5,2.5c.5,1,2,4,2,5.5a9.37,9.37,0,0,1-1,3.5l-3.5,6c-1.33,2.33-4.1,7.2-4.5,8a7.11,7.11,0,0,0-1,3c0,1-.5,4.5,0,6a10.59,10.59,0,0,0,1.5,3.5,35.25,35.25,0,0,0,3.5,4.5c1,1,3,3.5,4,4.5.8.8,4.34,2.33,6,3l7,3.5c.8.4,4.34,1.5,6,2,2,.66,6.4,2.2,8,3,2,1,6,3.5,7,5s4,9,4.5,10,5.5,13,6,14,5,8.5,6,9.5a76.29,76.29,0,0,1,5.5,8c.5,1,5.5,9.5,6,10.5s4.5,9.5,5,10.5,1,2.5,1.5,3.5c.4.8.5,5,.5,7a25.1,25.1,0,0,0,0,6.5,31.07,31.07,0,0,0,1.5,5c.5,1.5,2.5,7,3.5,8Z" transform="translate(-84.33 -74.66)"/></g></svg>