<svg id="Layer_1" data-name="Layer 1" xmlns="http://www.w3.org/2000/svg" xmlns:xlink="http://www.w3.org/1999/xlink" viewBox="0 0 321 432"><defs><style>.cls-1{fill:none;}.cls-2{fill:#9098bd;}.cls-3{fill:#f73c57;}.cls-4{clip-path:url(#clip-path);}.cls-5{fill:#00367c;}.cls-6{clip-path:url(#clip-path-2);}</style><clipPath id="clip-path" transform="translate(-89.58 -33.91)"><rect class="cls-1" x="338.11" y="81.44" width="60" height="60" transform="translate(168.47 440.17) rotate(-75.57)"/></clipPath><clipPath id="clip-path-2" transform="translate(-89.58 -33.91)"><rect class="cls-1" x="103.13" y="82.46" width="57" height="57" transform="matrix(0.96, -0.27, 0.27, 0.96, -24.76, 38.98)"/></clipPath></defs><path class="cls-2" d="M89.58,58.91h321v367a40,40,0,0,1-40,40h-241a40,40,0,0,1-40-40Z" transform="translate(-89.58 -33.91)"/><path d="M226.26,94.55v28.36h-5V111l.18-4.72-1.42,2.16-5.48,6.44-5.48-6.44-1.42-2.16.22,4.72v12h-5V94.55h.4l11.28,13.3,11.2-13.3ZM248.38,103v19.92h-4.52l-.1-2.58a7.22,7.22,0,0,1-2.18,2.22,5.87,5.87,0,0,1-3.28.84,5.26,5.26,0,0,1-4.42-1.88,8.61,8.61,0,0,1-1.46-5.36V103h5v12.72a5.22,5.22,0,0,0,.62,2.74,2.25,2.25,0,0,0,2,1,3.16,3.16,0,0,0,1.68-.46,3.33,3.33,0,0,0,1.2-1.32,4.26,4.26,0,0,0,.44-1.94V103Zm11.36,20.28a11.84,11.84,0,0,1-4.5-.7,6.34,6.34,0,0,1-2.3-1.54l1.48-3.8a8.4,8.4,0,0,0,5.44,2.12,3,3,0,0,0,1.92-.52,1.69,1.69,0,0,0,.64-1.32,1.92,1.92,0,0,0-1.1-1.54,21.87,21.87,0,0,0-3.22-1.66,16.64,16.64,0,0,1-2.4-1.26,6.28,6.28,0,0,1-1.78-1.78,4.91,4.91,0,0,1-.74-2.76,5.56,5.56,0,0,1,.88-3.14,5.64,5.64,0,0,1,2.6-2.06,11.63,11.63,0,0,1,6.74-.4,9.17,9.17,0,0,1,2.14.76,5,5,0,0,1,1.28.84l-1.36,3.6a9,9,0,0,0-2.12-1.18,6.09,6.09,0,0,0-2.44-.5,4.08,4.08,0,0,0-2.12.4,1.39,1.39,0,0,0-.6,1.28,1.76,1.76,0,0,0,.88,1.5,16.21,16.21,0,0,0,2.76,1.34,11.7,11.7,0,0,1,4.12,2.52,4.78,4.78,0,0,1,1.44,3.52,6.37,6.37,0,0,1-.8,3.16,5.72,5.72,0,0,1-2.5,2.26A9.66,9.66,0,0,1,259.74,123.27ZM271.6,94.43h5.6v5.32h-5.6Zm.2,8.56H277v19.92h-5.2Zm19,20.4a8.9,8.9,0,0,1-5.1-1.38,8.35,8.35,0,0,1-3-3.74,13.7,13.7,0,0,1-1-5.24,12.6,12.6,0,0,1,1.08-5.24A9,9,0,0,1,286,104a8.82,8.82,0,0,1,5.08-1.44,11.28,11.28,0,0,1,3.2.4,7.2,7.2,0,0,1,2.64,1.4l-1.64,4.24a3.84,3.84,0,0,0-1.72-1.36,5.16,5.16,0,0,0-2.2-.52c-2.91,0-4.36,2.1-4.36,6.32a8.56,8.56,0,0,0,1.06,4.82,3.8,3.8,0,0,0,3.3,1.5,5.88,5.88,0,0,0,2.44-.5,5.18,5.18,0,0,0,1.76-1.22l1.52,3.56a5.72,5.72,0,0,1-1.34,1,10,10,0,0,1-2.16.86A9.83,9.83,0,0,1,290.81,123.39Z" transform="translate(-89.58 -33.91)"/><path class="cls-3" d="M323.58,33.91h-158L171.1,44l-5.52,8.19,5.52,5.67-5.52,6.93L171.1,73l-5.52,6.93h158L315.05,73l8.53-8.2-8.53-6.93,8.53-5.67L315.05,44Z" transform="translate(-89.58 -33.91)"/><g class="cls-4"><path class="cls-5" d="M355.46,120.12l1.18-4.58a2.18,2.18,0,0,0,2-1l1-4-4.35-1.12-.85,3.33a2.17,2.17,0,0,0,.11,1.44,2.25,2.25,0,0,0,.95,1.07l-1.17,4.58a5.66,5.66,0,0,0,4.07,6.89l5.39,1.39a4.5,4.5,0,0,1,3.23,5.47l-1.6,6.2a.59.59,0,0,0,.06.45.61.61,0,0,0,.36.27.6.6,0,0,0,.45-.07.56.56,0,0,0,.27-.35l1.59-6.21a5.68,5.68,0,0,0-4.07-6.9l-5.39-1.38a4.51,4.51,0,0,1-3.23-5.47Z" transform="translate(-89.58 -33.91)"/><path class="cls-5" d="M357.64,95.6a.83.83,0,0,1,.41.07.94.94,0,0,1,.34.25.89.89,0,0,1,.18.38,1,1,0,0,1,0,.42l-3,11.56,4.35,1.12L365,89.59a8.28,8.28,0,0,0-5.79-10.08,8.16,8.16,0,0,0-5.59.5l-3.14,12.21a8.16,8.16,0,0,0,7.13,3.38Zm4.86-3.54a.54.54,0,0,1-.26.36.65.65,0,0,1-.45.07.61.61,0,0,1-.36-.27.59.59,0,0,1-.06-.45l.2-.76a.56.56,0,0,1,.26-.36.59.59,0,0,1,.45-.06.61.61,0,0,1,.36.27.56.56,0,0,1,.06.44Zm-2.06-9.44a.62.62,0,0,1,.18-.14.55.55,0,0,1,.22-.06.6.6,0,0,1,.23,0,.78.78,0,0,1,.2.11,6.38,6.38,0,0,1,2,6.42.53.53,0,0,1-.27.35.57.57,0,0,1-.44.07.61.61,0,0,1-.36-.27.59.59,0,0,1-.06-.45,5.21,5.21,0,0,0-.08-2.85,5.15,5.15,0,0,0-1.58-2.37.49.49,0,0,1-.14-.18.43.43,0,0,1-.06-.22.6.6,0,0,1,0-.23A.56.56,0,0,1,360.44,82.62Z" transform="translate(-89.58 -33.91)"/><path class="cls-5" d="M349.45,91.63l3-11.6a2.26,2.26,0,0,0-2.15,1.68l-1.91,7.41a2.27,2.27,0,0,0,.11,1.43,2.29,2.29,0,0,0,1,1.08Z" transform="translate(-89.58 -33.91)"/><path class="cls-5" d="M393.69,111l1.9-7.4a2.24,2.24,0,0,0-1.07-2.51l-3,11.6a2.25,2.25,0,0,0,2.15-1.69Z" transform="translate(-89.58 -33.91)"/><path class="cls-5" d="M373.7,130.16,371,140.88a.58.58,0,0,0,.06.45.59.59,0,0,0,.8.21.58.58,0,0,0,.27-.36l2.76-10.73a2.19,2.19,0,0,0,1.36-.48,2.24,2.24,0,0,0,.79-1.2l.85-3.32-4.35-1.12-1,4A2.21,2.21,0,0,0,373.7,130.16Z" transform="translate(-89.58 -33.91)"/><path class="cls-5" d="M381.11,112.74a.93.93,0,0,1,.19-.37,1.16,1.16,0,0,1,.34-.24,1,1,0,0,1,.42-.06.87.87,0,0,1,.39.14,8.21,8.21,0,0,0,7.88.48l3.14-12.21a8.15,8.15,0,0,0-4.65-3.13,8.28,8.28,0,0,0-9.94,6l-5.09,19.81,4.34,1.12Zm-.08-5.68a.58.58,0,0,1-.27.36.56.56,0,0,1-.44.06.58.58,0,0,1-.36-.27.56.56,0,0,1-.06-.44l.19-.76a.61.61,0,0,1,.27-.36.59.59,0,0,1,.45-.06.54.54,0,0,1,.36.27.61.61,0,0,1,.06.44Zm.09-2.68a.54.54,0,0,1-.36-.27.61.61,0,0,1-.07-.44,6.42,6.42,0,0,1,1.78-3,6.27,6.27,0,0,1,3.1-1.61.62.62,0,0,1,.44.08.59.59,0,0,1,.25.38.58.58,0,0,1-.09.44.61.61,0,0,1-.37.25,5.13,5.13,0,0,0-4,3.77.61.61,0,0,1-.27.36.56.56,0,0,1-.44.06Z" transform="translate(-89.58 -33.91)"/></g><g class="cls-6"><path class="cls-5" d="M122.19,96.29A34.2,34.2,0,0,1,112,90.57l-2.62-2.27a1.67,1.67,0,0,0-2.71,1.7l7,25.26a6.66,6.66,0,1,0,4.75,4.66l-7-25.52a41.05,41.05,0,0,0,9.65,5,5,5,0,0,1-.45,9.52,1.67,1.67,0,0,0,.89,3.22,8.35,8.35,0,0,0,.74-15.86Z" transform="translate(-89.58 -33.91)"/><path class="cls-5" d="M153.11,89.63l-21,12.71a1.66,1.66,0,0,0-.74,1.87l6,21.82a6.55,6.55,0,0,0-3.46,0,6.68,6.68,0,1,0,8.21,4.66L136.72,111l18-10.91,3.65,13.25a6.66,6.66,0,1,0,4.75,4.66l-7.55-27.37A1.66,1.66,0,0,0,153.11,89.63Z" transform="translate(-89.58 -33.91)"/></g></svg>