<svg id="Layer_1" data-name="Layer 1" xmlns="http://www.w3.org/2000/svg" viewBox="0 0 470.11 468.94"><defs><style>.cls-1{fill:#f73c57;fill-opacity:0.9;}</style></defs><path class="cls-1" d="M125.9,71.27c-8.54-49.88,56.44-76.8,85.67-35.48,18.93,26.74,58.71,26.63,77.66-.1,29.19-41.17,94.26-14.61,85.59,35.11a47.35,47.35,0,0,0,54.72,54.78c49.76-8.62,76.63,56.25,35.35,85.34a47.35,47.35,0,0,0,0,77.43c41.29,29,14.06,93.81-35.7,85.35-32.3-5.5-60.5,22.55-55,54.84,8.54,49.89-56.44,76.8-85.67,35.48-18.93-26.74-58.7-26.63-77.66.1-29.19,41.17-94.25,14.61-85.59-35.11a47.34,47.34,0,0,0-54.71-54.78C20.86,382.85-6,318,35.28,288.89a47.35,47.35,0,0,0-.05-77.42c-41.29-29-14.06-93.82,35.7-85.35C103.23,131.62,131.44,103.57,125.9,71.27Z" transform="translate(-15.02 -15.43)"/></svg>