<svg id="Layer_1" data-name="Layer 1" xmlns="http://www.w3.org/2000/svg" viewBox="0 0 488.82 488.82"><defs><style>.cls-1{fill:#8664ad;}</style></defs><path class="cls-1" d="M220.14,31.11C225.49-3,274.67-3,280,31.11h0c4.07,26,37,34.8,53.53,14.35h0c21.71-26.91,64.3-2.32,51.86,29.94h0c-9.47,24.52,14.65,48.64,39.18,39.18h0c32.26-12.44,56.85,30.15,29.94,51.86h0C434.07,183,442.9,215.9,468.88,220h0c34.15,5.35,34.15,54.53,0,59.88h0c-26,4.07-34.81,37-14.35,53.52h0c26.91,21.72,2.32,64.31-29.94,51.86h0c-24.53-9.46-48.65,14.66-39.18,39.19h0c12.44,32.25-30.15,56.84-51.86,29.94h0C317,433.9,284.09,442.73,280,468.7h0c-5.35,34.16-54.53,34.16-59.88,0h0c-4.07-26-37-34.8-53.53-14.34h0c-21.71,26.9-64.3,2.31-51.86-29.94h0c9.47-24.53-14.65-48.65-39.18-39.19h0c-32.25,12.45-56.84-30.14-29.94-51.86h0c20.46-16.51,11.63-49.45-14.34-53.52h0c-34.16-5.35-34.16-54.53,0-59.88h0c26-4.07,34.8-37,14.34-53.53h0c-26.9-21.71-2.31-64.3,29.94-51.86h0C100.1,124,124.22,99.92,114.75,75.4h0c-12.44-32.26,30.15-56.85,51.86-29.94h0c16.51,20.45,49.46,11.63,53.53-14.35Z" transform="translate(-5.67 -5.5)"/></svg>